# AST/ASF file generated using VICON BodyLanguage
# -----------------------------------------------
:version 1.10
:name VICON
:units
  mass 1.0
  length 0.45
  angle deg
:documentation
   .ast/.asf automatically generated from VICON data using
   VICON BodyBuilder and BodyLanguage model FoxedUp or BRILLIANT.MOD
:root
   order TX TY TZ RX RY RZ
   axis XYZ
   position 0 0 0  
   orientation 0 0 0 
:bonedata
  begin
     id 1 
     name lhipjoint
     direction 0.57768 -0.667037 0.470475 
     length 2.36008 
     axis 0 0 0  XYZ
  end
  begin
     id 2 
     name lfemur
     direction 0.34202 -0.939693 0  
     length 6.97235  
     axis 0 0 20  XYZ
    dof rx ry rz
    limits (-160.0 20.0)
           (-70.0 70.0)
           (-60.0 70.0)
  end
  begin
     id 3 
     name ltibia
     direction 0.34202 -0.939693 0   
     length 6.93428   
     axis 0 0 20   XYZ
    dof rx
    limits (-10.0 170.0)
  end
  begin
     id 4 
     name lfoot
     direction 0.133018 -0.365463 0.921272   
     length 2.18603   
     axis -90 7.62852e-016 20   XYZ
    dof rx rz
    limits (-45.0 90.0)
           (-70.0 20.0)
  end
  begin
     id 5 
     name ltoes
     direction 1.53519e-011 -4.22055e-011 1   
     length 1.07924   
     axis -90 7.62852e-016 20   XYZ
    dof rx
    limits (-90.0 20.0)
  end
  begin
     id 6 
     name rhipjoint
     direction -0.577712 -0.667019 0.470462   
     length 2.36015  
     axis 0 0 0  XYZ 
  end
  begin
     id 7 
     name rfemur
     direction -0.34202 -0.939693 0   
     length 6.71195   
     axis 0 0 -20   XYZ
    dof rx ry rz
    limits (-160.0 20.0)
           (-70.0 70.0)
           (-70.0 60.0)
  end
  begin
     id 8 
     name rtibia
     direction -0.34202 -0.939693 0   
     length 7.04592   
     axis 0 0 -20   XYZ
    dof rx
    limits (-10.0 170.0)
 end
 begin
     id 9 
     name rfoot
     direction -0.113796 -0.312651 0.943027   
     length 2.03846  
     axis -90 -7.62852e-016 -20   XYZ
    dof rx rz
    limits (-45.0 90.0)
           (-20.0 70.0)
  end
  begin
     id 10 
     name rtoes
     direction -1.53586e-011 -4.218e-011 1   
     length 1.01562   
     axis -90 -7.62852e-016 -20   XYZ
    dof rx
    limits (-90.0 20.0)
  end
  begin
     id 11 
     name lowerback
     direction -0.0417299 0.991937 -0.119667   
     length 2.05257   
     axis 0 0 0   XYZ
    dof rx ry rz
    limits (-20.0 45.0)
           (-30.0 30.0)
           (-30.0 30.0)
  end
  begin
     id 12 
     name upperback
     direction -0.00017666 0.999999 0.00105178   
     length 2.05693   
     axis 0 0 0   XYZ
    dof rx ry rz
    limits (-20.0 45.0)
           (-30.0 30.0)
           (-30.0 30.0)
  end
  begin
     id 13 
     name thorax
     direction 0.0185169 0.998203 0.0569866   
     length 2.0932   
     axis 0 0 0   XYZ
    dof rx ry rz
    limits (-20.0 45.0)
           (-30.0 30.0)
           (-30.0 30.0)
  end
  begin
     id 14 
     name lowerneck
     direction -0.0212406 0.982645 0.184277   
     length 1.72509   
     axis 0 0 0   XYZ
    dof rx ry rz
    limits (-20.0 45.0)
           (-30.0 30.0)
           (-30.0 30.0)
  end
  begin
     id 15 
     name upperneck
     direction 0.00528579 0.965323 -0.261004   
     length 1.76294   
     axis 0 0 0   XYZ
    dof rx ry rz
    limits (-20.0 45.0)
           (-30.0 30.0)
           (-30.0 30.0)
  end
  begin
     id 16
     name head
     direction 0.00695421 0.994078 -0.108445  
     length 1.78678  
     axis 0 0 0   XYZ
    dof rx ry rz
    limits (-20.0 45.0)
           (-30.0 30.0)
           (-30.0 30.0)
  end
  begin
     id 17 
     name lclavicle
     direction 0.97277 0.211305 -0.095232  
     length 3.84823  
     axis 0 0 0   XYZ
    dof ry rz
    limits (-20.0 10.0)
           (0.0 20.0)
  end
  begin
     id 18 
     name lhumerus
     direction 1 -4.48957e-011 -1.98313e-027   
     length 4.97185   
     axis 180 -30 -90   XYZ
    dof rx ry rz
    limits (-60.0 90.0)
           (-90.0 90.0)
           (-90.0 90.0)
  end
  begin
     id 19
     name lradius
     direction 1 -4.4898e-011 7.31063e-027   
     length 3.35811   
     axis 180 -30 -90   XYZ
    dof rx
    limits (-10.0 170.0)
  end
  begin
     id 20
     name lwrist
     direction 1 -4.48938e-011 9.95048e-027   
     length 1.67905   
     axis -8.75986e-015 90 90   XYZ
    dof ry
    limits (-180.0 0.0)
 end
  begin
     id 21 
     name lhand
     direction 1 -4.4901e-011 1.9901e-026   
     length 0.622776   
     axis -1.26985e-014 90 90   XYZ
    dof rx rz
    limits (-90.0 90.0)
           (-45.0 45.0)
  end
  begin
     id 22 
     name lfingers
     direction 1 -4.48961e-011 3.98019e-026   
     length 0.502098   
     axis -2.5397e-014 90 90   XYZ
    dof rx
    limits (0.0 90.0)
  end
  begin
     id 23
     name lthumb
     direction 0.707107 -6.34933e-011 0.707107   
     length 0.720915   
     axis -90 45 2.85299e-015   XYZ
    dof rx rz
    limits (-45.0 45.0)
           (-45.0 45.0)
  end
  begin
     id 24 
     name rclavicle
     direction -0.990867 0.133739 -0.0172226   
     length 3.78845  
     axis 0 0 0   XYZ 
    dof ry rz
    limits (-10.0 20.0)
           (-20.0 0.0)
  end
  begin
     id 25 
     name rhumerus
     direction -1 -4.48972e-011 -1.99267e-027  
     length 4.96493   
     axis 180 30 90   XYZ
    dof rx ry rz
    limits (-90.0 60.0)
           (-90.0 90.0)
           (-90.0 90.0)
  end
  begin
     id 26 
     name rradius
     direction -1 -4.48969e-011 8.96093e-027   
     length 3.34929   
     axis 180 30 90   XYZ
    dof rx
    limits (-10.0 170.0)
  end
  begin
     id 27 
     name rwrist
     direction -1 -4.48953e-011 9.95048e-027   
     length 1.67464   
     axis -8.75986e-015 -90 -90   XYZ
    dof ry
    limits (-180.0 0.0)
  end
  begin
     id 28
     name rhand
     direction -1 -4.49001e-011 1.9901e-026   
     length 0.638041   
     axis -1.26985e-014 -90 -90   XYZ
    dof rx rz
    limits (-90.0 90.0)
           (-45.0 45.0)
  end
  begin
     id 29
     name rfingers
     direction -1 -4.48967e-011 3.98019e-026   
     length 0.514405   
     axis -2.5397e-014 -90 -90   XYZ
    dof rx
    limits (0.0 90.0)
  end
  begin
     id 30
     name rthumb
     direction -0.707107 -6.34904e-011 0.707107   
     length 0.738586   
     axis -90 -45 -2.85299e-015   XYZ
    dof rx rz
    limits (-45.0 45.0)
           (-45.0 45.0)
  end
:hierarchy
  begin
    root lhipjoint rhipjoint lowerback
    lhipjoint lfemur
    lfemur ltibia
    ltibia lfoot
    lfoot ltoes
    rhipjoint rfemur
    rfemur rtibia
    rtibia rfoot
    rfoot rtoes
    lowerback upperback
    upperback thorax
    thorax lowerneck lclavicle rclavicle
    lowerneck upperneck
    upperneck head
    lclavicle lhumerus
    lhumerus lradius
    lradius lwrist
    lwrist lhand lthumb
    lhand lfingers
    rclavicle rhumerus
    rhumerus rradius
    rradius rwrist
    rwrist rhand rthumb
    rhand rfingers
  end

#!OML:ASF E:\Mandelcareful walks\Project 1\Capture day 1\Session 1\Subject1.ASF
:FULLY-SPECIFIED
:DEGREES
82
root 4.12853 16.8395 -1.24404 -142.884 -84.8962 148.463
lowerback -10.8498 -1.11688 -3.90937
upperback 0.131986 -1.00717 -0.0544364
thorax 6.30333 -0.62538 1.98325
lowerneck -21.5194 3.28393 1.01793
upperneck 12.6248 3.34638 4.20449
head 7.32557 2.05883 1.638
rclavicle -1.3449e-015 -4.37326e-015
rhumerus -20.0215 -5.12298 -38.1699
rradius 83.8047
rwrist -36.4897
rhand 28.9762 -60.8608
rfingers 7.12502
rthumb 52.7842 -80.4888
lclavicle -1.3449e-015 -4.37326e-015
lhumerus -43.7265 38.6388 56.0419
lradius 54.4932
lwrist 62.481
lhand -35.9026 -7.16888
lfingers 7.12502
lthumb -9.01579 22.6185
rfemur -9.33664 -6.38972 14.94
rtibia 23.7775
rfoot -19.3013 -10.0601
rtoes 9.87103
lfemur -8.11633 -3.32366 -22.4783
ltibia 27.3009
lfoot -26.2264 14.3901
ltoes 12.2673
83
root 4.13723 16.8376 -1.25055 -142.651 -84.9207 148.238
lowerback -10.7392 -1.13915 -4.01143
upperback 0.108273 -1.0298 -0.0537355
thorax 6.21928 -0.637997 2.03946
lowerneck -21.3861 3.16099 0.747683
upperneck 12.6098 3.22859 4.4082
head 7.29308 2.00804 1.73091
rclavicle 9.95787e-015 -1.44119e-014
rhumerus -19.8956 -3.45135 -38.106
rradius 83.1255
rwrist -34.9423
rhand 28.7033 -61.0064
rfingers 7.12502
rthumb 52.5375 -80.7872
lclavicle 9.95787e-015 -1.44119e-014
lhumerus -43.984 38.1671 55.6441
lradius 56.5235
lwrist 64.73
lhand -36.8968 -7.56224
lfingers 7.12502
lthumb -9.97505 22.1814
rfemur -9.3795 -6.44626 14.9635
rtibia 23.7659
rfoot -19.2631 -10.022
rtoes 10.1918
lfemur -8.15949 -3.39029 -22.4668
ltibia 27.3276
lfoot -26.222 14.444
ltoes 12.1624
84
root 4.14366 16.8447 -1.25583 -142.69 -84.9166 148.285
lowerback -10.715 -1.16224 -4.09138
upperback 0.1777 -1.04847 -0.0625395
thorax 6.28201 -0.651217 2.07192
lowerneck -21.4573 3.05921 0.547766
upperneck 12.6251 3.12575 4.53447
head 7.30661 1.96204 1.79392
rclavicle -2.0158e-015 -1.72943e-014
rhumerus -19.5636 -1.97619 -38.0891
rradius 82.2487
rwrist -33.3256
rhand 28.9339 -61.0984
rfingers 7.12502
rthumb 52.7459 -80.7503
lclavicle -2.0158e-015 -1.72943e-014
lhumerus -43.9729 37.8812 55.2971
lradius 58.3915
lwrist 66.6822
lhand -36.3646 -7.70233
lfingers 7.12502
lthumb -9.46164 22.0653
rfemur -9.44956 -6.41139 14.9855
rtibia 23.7824
rfoot -19.2246 -10.3075
rtoes 10.0497
lfemur -8.21561 -3.565 -22.4568
ltibia 27.3176
lfoot -26.1706 14.7272
ltoes 11.8442
85
root 4.14444 16.851 -1.26145 -142.886 -84.8881 148.47
lowerback -10.742 -1.15695 -4.17497
upperback 0.251563 -1.02498 -0.0962944
thorax 6.37512 -0.644283 2.08626
lowerneck -21.504 2.90752 0.473243
upperneck 12.5993 2.9304 4.6008
head 7.30847 1.87129 1.80468
rclavicle 2.06829e-014 -8.84592e-015
rhumerus -19.3095 -0.374756 -38.0364
rradius 81.4403
rwrist -32.0107
rhand 28.7133 -61.1645
rfingers 7.12502
rthumb 52.5465 -80.9398
lclavicle 2.06829e-014 -8.84592e-015
lhumerus -43.9246 37.5405 54.9326
lradius 60.2117
lwrist 68.3321
lhand -33.2151 -6.59485
lfingers 7.12502
lthumb -6.42191 23.2878
rfemur -9.45047 -6.44607 15.0012
rtibia 23.7623
rfoot -19.1496 -10.4942
rtoes 9.63979
lfemur -8.22802 -3.54012 -22.4413
ltibia 27.3098
lfoot -26.0643 14.9146
ltoes 11.4996
86
root 4.14752 16.8509 -1.2673 -142.661 -84.9057 148.277
lowerback -10.6867 -1.18052 -4.29662
upperback 0.240295 -1.04302 -0.117952
thorax 6.33527 -0.655943 2.12985
lowerneck -21.6091 2.74447 0.398604
upperneck 12.6948 2.71372 4.67372
head 7.36088 1.77305 1.81846
rclavicle -2.96624e-016 2.43511e-015
rhumerus -19.1427 1.43675 -37.985
rradius 80.7424
rwrist -30.8035
rhand 28.001 -61.2049
rfingers 7.12502
rthumb 51.9011 -81.3691
lclavicle -2.96624e-016 2.43511e-015
lhumerus -44.0412 37.1193 54.4765
lradius 62.0484
lwrist 69.5449
lhand -33.2337 -6.11057
lfingers 7.12502
lthumb -6.43981 23.7715
rfemur -9.46176 -6.41719 15.0298
rtibia 23.7133
rfoot -19.1807 -10.2669
rtoes 9.78047
lfemur -8.2752 -3.47854 -22.4226
ltibia 27.3165
lfoot -26.0086 14.9162
ltoes 11.4287
87
root 4.15185 16.8537 -1.27387 -142.376 -84.9312 148.047
lowerback -10.6192 -1.22463 -4.44215
upperback 0.231425 -1.0873 -0.119145
thorax 6.29395 -0.681462 2.2044
lowerneck -21.8374 2.58367 0.270667
upperneck 12.8949 2.5135 4.73212
head 7.46742 1.68121 1.84206
rclavicle -8.526e-015 -7.95139e-016
rhumerus -18.9409 3.16278 -37.9707
rradius 80.102
rwrist -29.4363
rhand 27.6247 -61.7506
rfingers 7.12502
rthumb 51.5593 -82.1144
lclavicle -8.526e-015 -7.95139e-016
lhumerus -44.0783 36.8003 53.9779
lradius 63.7957
lwrist 70.5624
lhand -32.6868 -6.124
lfingers 7.12502
lthumb -5.91181 23.7735
rfemur -9.53642 -6.35167 15.0695
rtibia 23.7186
rfoot -19.2175 -10.1131
rtoes 9.8662
lfemur -8.32343 -3.58364 -22.4044
ltibia 27.3045
lfoot -26.0327 14.9643
ltoes 11.5024
88
root 4.15802 16.8577 -1.28091 -142.48 -84.9161 148.192
lowerback -10.6604 -1.21059 -4.55803
upperback 0.296993 -1.04852 -0.136477
thorax 6.38617 -0.668523 2.2565
lowerneck -21.9178 2.3462 -0.0590176
upperneck 12.8488 2.24162 5.00627
head 7.46561 1.56189 1.9533
rclavicle -3.32762e-014 -1.2275e-014
rhumerus -18.7214 4.61503 -37.9652
rradius 79.2948
rwrist -27.9111
rhand 27.7598 -62.3739
rfingers 7.12502
rthumb 51.6821 -82.6665
lclavicle -3.32762e-014 -1.2275e-014
lhumerus -43.8203 36.4584 53.6137
lradius 65.4617
lwrist 71.6344
lhand -32.0186 -6.4456
lfingers 7.12502
lthumb -5.26671 23.4689
rfemur -9.64117 -6.42726 15.1069
rtibia 23.7612
rfoot -19.1632 -10.058
rtoes 10.0305
lfemur -8.36024 -3.55488 -22.3784
ltibia 27.2868
lfoot -25.9797 15.0084
ltoes 11.351
89
root 4.16168 16.8538 -1.28847 -142.977 -84.853 148.674
lowerback -10.6959 -1.12441 -4.65214
upperback 0.331758 -0.917083 -0.167001
thorax 6.43463 -0.608222 2.29805
lowerneck -21.8144 2.08683 -0.49251
upperneck 12.7671 1.96931 5.32284
head 7.42187 1.43931 2.0915
rclavicle -1.01745e-014 -5.06901e-015
rhumerus -18.7977 6.10736 -37.8516
rradius 78.4915
rwrist -26.454
rhand 27.7458 -61.2661
rfingers 7.12502
rthumb 51.6694 -81.5661
lclavicle -1.01745e-014 -5.06901e-015
lhumerus -43.6122 35.8523 53.3403
lradius 67.1981
lwrist 72.648
lhand -31.1616 -6.32869
lfingers 7.12502
lthumb -4.4392 23.6048
rfemur -9.6901 -6.50573 15.1251
rtibia 23.7913
rfoot -19.0959 -9.92396
rtoes 10.2638
lfemur -8.34281 -3.47474 -22.3594
ltibia 27.2799
lfoot -25.9361 15.0454
ltoes 11.2153
90
root 4.1627 16.8482 -1.29604 -143.425 -84.7932 149.091
lowerback -10.6021 -1.10257 -4.76432
upperback 0.378013 -0.874681 -0.210944
thorax 6.42882 -0.590923 2.32248
lowerneck -22.196 1.96228 -0.655086
upperneck 13.069 1.8111 5.45073
head 7.58768 1.37598 2.15326
rclavicle -8.05408e-015 7.81472e-015
rhumerus -18.8065 7.63536 -37.8467
rradius 77.816
rwrist -25.2033
rhand 27.0278 -58.0071
rfingers 7.12502
rthumb 51.0161 -78.6795
lclavicle -8.05408e-015 7.81472e-015
lhumerus -43.5738 35.3574 52.8976
lradius 69.0873
lwrist 73.6937
lhand -29.995 -5.93218
lfingers 7.12502
lthumb -3.31262 24.0218
rfemur -9.71418 -6.53875 15.1436
rtibia 23.857
rfoot -19.1229 -9.82126
rtoes 10.0937
lfemur -8.29184 -3.4968 -22.3425
ltibia 27.2535
lfoot -25.96 15.0796
ltoes 11.3348
91
root 4.16709 16.8475 -1.30409 -143.342 -84.7966 148.983
lowerback -10.472 -1.07452 -4.89233
upperback 0.394245 -0.827228 -0.225412
thorax 6.37076 -0.57061 2.38828
lowerneck -22.2912 1.78271 -0.897353
upperneck 13.1137 1.61281 5.59999
head 7.62188 1.28562 2.22002
rclavicle -1.40896e-014 -8.5291e-015
rhumerus -18.9008 9.01454 -37.8484
rradius 77.1419
rwrist -24.1773
rhand 28.8754 -59.998
rfingers 7.12502
rthumb 52.6931 -79.6828
lclavicle -1.40896e-014 -8.5291e-015
lhumerus -43.4998 34.8733 52.5377
lradius 70.9717
lwrist 74.5971
lhand -29.5471 -6.31562
lfingers 7.12502
lthumb -2.88003 23.6447
rfemur -9.73474 -6.64327 15.1719
rtibia 23.9525
rfoot -19.1948 -9.73813
rtoes 9.98515
lfemur -8.28196 -3.40531 -22.3055
ltibia 27.2086
lfoot -25.8207 15.0164
ltoes 11.1449
